<?xml version="1.0" standalone="no"?>
<!DOCTYPE svg PUBLIC "-//W3C//DTD SVG 20010904//EN"
 "http://www.w3.org/TR/2001/REC-SVG-20010904/DTD/svg10.dtd">
<svg version="1.0" xmlns="http://www.w3.org/2000/svg"
 width="300.000000pt" height="300.000000pt" viewBox="0 0 300.000000 300.000000"
 preserveAspectRatio="xMidYMid meet">
<metadata>
Created by potrace 1.10, written by Peter Selinger 2001-2011
</metadata>
<g transform="translate(0.000000,300.000000) scale(0.100000,-0.100000)"
fill="#000000" stroke="none">
<path d="M1759 2942 c-9 -4 -47 -28 -85 -54 -60 -42 -77 -49 -134 -53 -111
-10 -129 -15 -166 -47 -45 -39 -59 -68 -75 -148 -11 -60 -17 -70 -80 -135 -37
-39 -72 -83 -78 -98 -20 -53 -13 -109 24 -186 34 -71 35 -75 33 -186 -3 -112
-3 -113 27 -151 17 -22 50 -48 73 -59 23 -11 42 -22 42 -26 0 -3 -41 -93 -90
-199 -86 -184 -90 -194 -75 -216 18 -28 13 -28 138 -5 l99 18 41 -75 c42 -75
78 -122 95 -122 23 0 48 40 126 208 47 101 86 188 86 192 0 16 75 20 119 7
l45 -14 66 -152 c36 -84 74 -157 83 -162 28 -16 52 6 108 96 28 47 56 85 61
85 4 0 51 -9 103 -20 102 -23 135 -18 135 20 0 11 -33 96 -73 189 l-74 170 29
12 c38 15 78 68 89 116 5 22 4 68 -2 111 l-10 73 40 88 c23 49 41 103 41 122
-1 53 -32 109 -97 171 -55 53 -60 62 -77 132 -32 137 -75 174 -219 188 -69 6
-100 14 -122 31 -106 77 -126 87 -179 86 -28 0 -58 -3 -67 -7z m158 -131 c77
-55 123 -71 200 -71 96 0 115 -17 140 -124 18 -78 52 -136 107 -181 71 -58 74
-81 25 -187 l-41 -90 7 -93 c4 -52 4 -103 0 -115 -5 -15 -33 -34 -89 -60 -84
-39 -120 -70 -183 -163 -41 -59 -65 -65 -156 -38 -90 26 -120 26 -212 0 -89
-26 -122 -18 -157 40 -52 87 -81 114 -163 152 -116 53 -111 43 -105 214 3 75
1 84 -33 152 -20 40 -37 84 -37 98 0 18 22 49 74 105 70 75 75 83 92 157 27
112 40 124 150 133 98 8 121 17 203 79 32 24 66 41 81 41 16 0 55 -20 97 -49z
m429 -941 c-42 -45 -47 -54 -41 -83 l7 -32 -29 28 c-35 33 -51 34 -89 5 l-29
-22 20 23 c10 12 51 38 91 57 39 18 79 43 89 54 10 11 20 20 23 20 3 0 -16
-23 -42 -50z m-905 -60 c16 -12 34 -31 40 -42 11 -20 10 -20 -12 -4 -31 21
-51 20 -77 -4 -12 -11 -23 -20 -24 -20 -2 0 -2 17 0 38 3 26 -1 42 -12 51 -49
41 23 24 85 -19z m865 -161 c48 -111 51 -120 31 -115 -12 3 -48 11 -80 18 -68
14 -77 8 -126 -82 l-30 -55 -15 35 c-8 19 -23 56 -35 82 l-20 47 33 11 c34 11
78 52 116 110 31 46 62 81 68 75 3 -2 29 -59 58 -126z m-833 41 c49 -72 100
-110 152 -110 14 0 25 -2 25 -4 0 -2 -24 -54 -53 -116 l-54 -112 -28 54 c-49
95 -61 100 -192 72 l-32 -6 67 146 c37 80 67 146 68 146 1 0 22 -31 47 -70z
m270 -62 c-11 -13 -29 -39 -39 -58 -15 -29 -19 -32 -22 -15 -2 11 -13 30 -25
42 -11 13 -19 25 -16 27 6 5 82 24 103 25 19 1 19 0 -1 -21z m275 2 l25 0 -20
-22 c-12 -13 -23 -32 -25 -43 -2 -17 -9 -12 -36 28 l-32 50 31 -7 c17 -3 43
-6 57 -6z m412 -144 c0 -16 -5 -18 -42 -12 -54 9 -56 12 -30 36 22 21 25 29
23 65 -1 12 9 2 23 -25 14 -25 25 -53 26 -64z m-1166 18 c-5 -19 0 -32 21 -54
l27 -29 -36 -6 c-64 -12 -70 -3 -39 60 30 61 37 68 27 29z m943 -26 c-20 -18
-44 -49 -54 -68 -30 -57 -47 -80 -59 -80 -10 0 -54 86 -54 106 0 4 11 -3 24
-15 37 -34 70 -22 108 39 21 33 38 50 51 50 17 0 15 -5 -16 -32z m-748 -64
l11 -24 -30 21 c-16 12 -27 26 -24 30 8 14 31 -1 43 -27z m127 -99 c-14 -30
-30 -55 -36 -55 -11 0 -70 87 -70 104 0 5 10 0 23 -12 30 -28 48 -28 78 1 13
13 26 22 28 20 2 -1 -8 -27 -23 -58z"/>
<path d="M1682 2671 c-74 -28 -111 -53 -171 -116 -155 -164 -156 -416 0 -580
96 -101 191 -140 333 -133 76 3 102 9 159 35 89 42 168 121 210 210 30 64 32
75 32 178 0 103 -2 114 -32 178 -42 89 -121 168 -210 210 -60 28 -80 32 -168
34 -80 3 -111 -1 -153 -16z m279 -100 c74 -35 125 -85 161 -159 29 -58 33 -76
33 -147 0 -133 -59 -232 -177 -296 -58 -32 -70 -34 -153 -34 -78 0 -97 4 -147
28 -72 35 -140 110 -168 185 -29 75 -25 195 9 260 44 85 118 150 204 178 61
20 181 12 238 -15z"/>
<path d="M1879 2324 l-141 -127 -54 54 c-49 48 -56 52 -81 43 -19 -6 -29 -17
-31 -35 -4 -34 146 -183 174 -172 29 11 334 293 334 309 0 16 -35 54 -50 54
-6 0 -74 -57 -151 -126z m-84 -144 c-21 -22 -46 -40 -55 -40 -9 0 -29 14 -46
31 l-29 31 37 -22 c34 -20 39 -20 66 -6 15 8 34 22 41 30 8 9 16 16 19 16 3 0
-12 -18 -33 -40z"/>
<path d="M1045 1181 c-65 -23 -79 -31 -284 -150 -95 -56 -176 -101 -180 -101
-4 0 -15 16 -24 35 -23 47 -72 77 -117 72 -51 -7 -198 -94 -222 -131 -13 -21
-18 -42 -15 -66 6 -43 396 -735 433 -767 42 -38 92 -31 195 28 49 28 96 60
104 72 23 33 18 96 -10 146 -14 23 -25 44 -25 46 0 1 18 10 40 20 l39 18 323
-87 c347 -92 394 -99 483 -68 28 10 254 143 504 297 484 298 493 305 507 390
12 80 -30 166 -100 202 -47 25 -148 21 -221 -9 -34 -14 -186 -98 -338 -186
-153 -89 -282 -162 -288 -162 -6 0 -6 7 1 19 17 32 12 109 -10 151 -27 54 -79
84 -175 105 -44 10 -163 46 -264 81 -205 71 -264 79 -356 45z m330 -135 c105
-35 226 -72 269 -82 93 -20 126 -45 126 -96 -1 -37 -14 -59 -49 -77 -29 -16
-54 -11 -238 40 -78 21 -149 36 -157 33 -26 -10 -32 -53 -10 -73 31 -29 324
-103 429 -109 118 -6 130 -1 445 183 140 82 280 159 310 172 133 55 229 6 199
-103 -9 -30 -46 -55 -452 -305 -243 -150 -467 -282 -497 -292 -36 -12 -69 -17
-96 -13 -22 3 -186 44 -365 92 l-324 87 -55 -30 -56 -30 -113 199 c-62 110
-109 203 -105 207 25 21 375 218 423 238 31 12 72 23 91 23 20 0 121 -29 225
-64z m-850 -104 c37 -45 58 -54 90 -42 l27 10 -21 -26 c-12 -15 -21 -40 -21
-57 l0 -30 -19 24 c-10 13 -28 44 -41 69 -12 25 -34 58 -49 74 -14 16 -19 25
-10 20 9 -5 29 -24 44 -42z m137 -348 c109 -192 198 -354 198 -361 0 -10 -141
-93 -160 -93 -11 0 -412 711 -405 718 15 16 151 91 159 88 5 -1 99 -159 208
-352z m1180 164 c12 -10 18 -21 15 -25 -11 -10 -113 -16 -144 -8 l-28 7 42 20
c23 11 49 31 59 46 l17 26 9 -24 c5 -12 18 -31 30 -42z m-957 -341 l35 11 -26
-31 c-18 -22 -25 -39 -22 -59 3 -15 3 -28 2 -28 -6 0 -74 119 -74 131 0 7 10
3 25 -11 22 -21 29 -22 60 -13z"/>
<path d="M399 841 c-30 -24 -20 -68 18 -77 20 -5 31 -2 44 15 36 45 -17 98
-62 62z"/>
</g>
</svg>
